<svg xmlns="http://www.w3.org/2000/svg" viewBox="0 0 96 96">
  <defs>
    <radialGradient id="bg" cx="0.3" cy="0.22" r="1.15">
      <stop offset="0" stop-color="#1d2132"></stop>
      <stop offset="1" stop-color="#101320"></stop>
    </radialGradient>
    <linearGradient id="seat" x1="0" y1="0" x2="0.6" y2="1">
      <stop offset="0" stop-color="#293045"></stop>
      <stop offset="1" stop-color="#20263a"></stop>
    </linearGradient>
    <linearGradient id="hot" x1="0.15" y1="0" x2="0.8" y2="1">
      <stop offset="0" stop-color="#ffe18f"></stop>
      <stop offset="1" stop-color="#ea9430"></stop>
    </linearGradient>
    <linearGradient id="edge" x1="0" y1="0" x2="0" y2="1">
      <stop offset="0" stop-color="#fff4d6" stop-opacity="0.85"></stop>
      <stop offset="1" stop-color="#fff4d6" stop-opacity="0"></stop>
    </linearGradient>
    <clipPath id="clip"><rect width="96" height="96" rx="22"></rect></clipPath>
    <filter id="blurW" x="-100%" y="-100%" width="300%" height="300%"><feGaussianBlur stdDeviation="9"></feGaussianBlur></filter>
    <filter id="blurT" x="-60%" y="-60%" width="220%" height="220%"><feGaussianBlur stdDeviation="3.2"></feGaussianBlur></filter>
    <filter id="sh" x="-30%" y="-30%" width="160%" height="180%"><feDropShadow dx="0" dy="1.3" stdDeviation="1.1" flood-color="#0b0e17" flood-opacity="0.5"></feDropShadow></filter>
  </defs>
  <rect width="96" height="96" rx="22" fill="url(#bg)"></rect>
  <g clip-path="url(#clip)">
    <g filter="url(#sh)">
      <rect x="14" y="14" width="18" height="18" rx="7" fill="url(#seat)"></rect>
      <rect x="39" y="14" width="18" height="18" rx="7" fill="url(#seat)"></rect>
      <rect x="64" y="14" width="18" height="18" rx="7" fill="url(#seat)"></rect>
      <rect x="14" y="39" width="18" height="18" rx="7" fill="url(#seat)"></rect>
      <rect x="64" y="39" width="18" height="18" rx="7" fill="url(#seat)"></rect>
      <rect x="14" y="64" width="18" height="18" rx="7" fill="url(#seat)"></rect>
      <rect x="39" y="64" width="18" height="18" rx="7" fill="url(#seat)"></rect>
      <rect x="64" y="64" width="18" height="18" rx="7" fill="url(#seat)"></rect>
    </g>
    <rect x="27" y="27" width="42" height="42" rx="15" fill="#eb9530" opacity="0.33" filter="url(#blurW)"></rect>
    <rect x="39" y="14" width="18" height="18" rx="7" fill="#f2a53a" opacity="0.08"></rect>
    <rect x="14" y="39" width="18" height="18" rx="7" fill="#f2a53a" opacity="0.08"></rect>
    <rect x="64" y="39" width="18" height="18" rx="7" fill="#f2a53a" opacity="0.08"></rect>
    <rect x="39" y="64" width="18" height="18" rx="7" fill="#f2a53a" opacity="0.08"></rect>
    <rect x="35" y="35" width="26" height="26" rx="10" fill="#f5a83c" opacity="0.52" filter="url(#blurT)"></rect>
    <g filter="url(#sh)">
      <rect x="39" y="39" width="18" height="18" rx="7" fill="url(#hot)"></rect>
    </g>
    <rect x="40.8" y="40.3" width="14.4" height="4.6" rx="2.3" fill="url(#edge)" opacity="0.55"></rect>
  </g>
</svg>