<svg xmlns="http://www.w3.org/2000/svg" width="32" height="32" viewBox="0 0 32 32">
  <rect width="32" height="32" rx="7" fill="#4f46e5"/>
  <rect x="9" y="7" width="14" height="2.4" rx="1.2" fill="#ffffff" opacity="0.9"/>
  <g fill="#ffffff" opacity="0.85">
    <rect x="7" y="13" width="4" height="4" rx="1.2"/>
    <rect x="12.5" y="13" width="4" height="4" rx="1.2"/>
    <rect x="18" y="13" width="4" height="4" rx="1.2"/>
    <rect x="23.5" y="13" width="4" height="4" rx="1.2"/>
    <rect x="7" y="19" width="4" height="4" rx="1.2"/>
    <rect x="12.5" y="19" width="4" height="4" rx="1.2"/>
    <rect x="23.5" y="19" width="4" height="4" rx="1.2"/>
    <rect x="7" y="25" width="4" height="4" rx="1.2"/>
    <rect x="12.5" y="25" width="4" height="4" rx="1.2"/>
    <rect x="18" y="25" width="4" height="4" rx="1.2"/>
    <rect x="23.5" y="25" width="4" height="4" rx="1.2"/>
  </g>
  <rect x="18" y="19" width="4" height="4" rx="1.2" fill="#fbbf24"/>
</svg>
