<svg xmlns="http://www.w3.org/2000/svg" width="18" height="18" viewBox="0 0 48 48"><path fill="#4285F4" d="M45.1 24.5c0-1.6-.1-3.1-.4-4.5H24v8.5h11.8c-.5 2.7-2 5-4.4 6.6v5.5h7.1c4.1-3.8 6.6-9.4 6.6-16.1z"></path><path fill="#34A853" d="M24 46c5.9 0 10.9-2 14.5-5.3l-7.1-5.5c-2 1.3-4.5 2.1-7.4 2.1-5.7 0-10.5-3.8-12.2-9H4.5v5.7C8.1 41.1 15.4 46 24 46z"></path><path fill="#FBBC05" d="M11.8 27.3c-.4-1.3-.7-2.7-.7-4.3s.3-3 .7-4.3v-5.7H4.5C3 16.1 2 19.9 2 23s1 6.9 2.5 10l7.3-5.7z"></path><path fill="#EA4335" d="M24 9.9c3.2 0 6.1 1.1 8.4 3.3l6.3-6.3C34.9 3.3 29.9 1 24 1 15.4 1 8.1 5.9 4.5 12.9l7.3 5.7c1.7-5.1 6.5-8.7 12.2-8.7z"></path></svg>